<svg id="visual" viewBox="0 0 900 600" width="900" height="600" xmlns="http://www.w3.org/2000/svg" xmlns:xlink="http://www.w3.org/1999/xlink" version="1.1"><path d="M0 373L21.5 380.2C43 387.3 86 401.7 128.8 410C171.7 418.3 214.3 420.7 257.2 415.5C300 410.3 343 397.7 385.8 390.2C428.7 382.7 471.3 380.3 514.2 378.3C557 376.3 600 374.7 642.8 385.5C685.7 396.3 728.3 419.7 771.2 415.8C814 412 857 381 878.5 365.5L900 350L900 601L878.5 601C857 601 814 601 771.2 601C728.3 601 685.7 601 642.8 601C600 601 557 601 514.2 601C471.3 601 428.7 601 385.8 601C343 601 300 601 257.2 601C214.3 601 171.7 601 128.8 601C86 601 43 601 21.5 601L0 601Z" fill="#1857ff"></path><path d="M0 479L21.5 467.8C43 456.7 86 434.3 128.8 429.7C171.7 425 214.3 438 257.2 442.3C300 446.7 343 442.3 385.8 437.8C428.7 433.3 471.3 428.7 514.2 427.2C557 425.7 600 427.3 642.8 422.7C685.7 418 728.3 407 771.2 403C814 399 857 402 878.5 403.5L900 405L900 601L878.5 601C857 601 814 601 771.2 601C728.3 601 685.7 601 642.8 601C600 601 557 601 514.2 601C471.3 601 428.7 601 385.8 601C343 601 300 601 257.2 601C214.3 601 171.7 601 128.8 601C86 601 43 601 21.5 601L0 601Z" fill="#3a41d6"></path><path d="M0 507L21.5 501.7C43 496.3 86 485.7 128.8 476C171.7 466.3 214.3 457.7 257.2 460.2C300 462.7 343 476.3 385.8 482.8C428.7 489.3 471.3 488.7 514.2 481.2C557 473.7 600 459.3 642.8 450.8C685.7 442.3 728.3 439.7 771.2 438.8C814 438 857 439 878.5 439.5L900 440L900 601L878.5 601C857 601 814 601 771.2 601C728.3 601 685.7 601 642.8 601C600 601 557 601 514.2 601C471.3 601 428.7 601 385.8 601C343 601 300 601 257.2 601C214.3 601 171.7 601 128.8 601C86 601 43 601 21.5 601L0 601Z" fill="#412baf"></path><path d="M0 496L21.5 501.3C43 506.7 86 517.3 128.8 523.5C171.7 529.7 214.3 531.3 257.2 533.5C300 535.7 343 538.3 385.8 537.5C428.7 536.7 471.3 532.3 514.2 530.8C557 529.3 600 530.7 642.8 529.8C685.7 529 728.3 526 771.2 521.5C814 517 857 511 878.5 508L900 505L900 601L878.5 601C857 601 814 601 771.2 601C728.3 601 685.7 601 642.8 601C600 601 557 601 514.2 601C471.3 601 428.7 601 385.8 601C343 601 300 601 257.2 601C214.3 601 171.7 601 128.8 601C86 601 43 601 21.5 601L0 601Z" fill="#3e168a"></path><path d="M0 572L21.5 564.8C43 557.7 86 543.3 128.8 541.5C171.7 539.7 214.3 550.3 257.2 552.2C300 554 343 547 385.8 544.7C428.7 542.3 471.3 544.7 514.2 547.3C557 550 600 553 642.8 551.5C685.7 550 728.3 544 771.2 542.3C814 540.7 857 543.3 878.5 544.7L900 546L900 601L878.5 601C857 601 814 601 771.2 601C728.3 601 685.7 601 642.8 601C600 601 557 601 514.2 601C471.3 601 428.7 601 385.8 601C343 601 300 601 257.2 601C214.3 601 171.7 601 128.8 601C86 601 43 601 21.5 601L0 601Z" fill="#350067"></path></svg>